<svg width="82" height="82" viewBox="0 0 82 82" fill="none" xmlns="http://www.w3.org/2000/svg">
<path d="M57.2964 31.8535C61.2998 31.8535 64.5571 28.5962 64.5571 24.5928C64.5571 20.5894 61.2998 17.332 57.2964 17.332C53.293 17.332 50.0356 20.5894 50.0356 24.5928C50.0356 28.5962 53.293 31.8535 57.2964 31.8535ZM57.2964 19.332C60.1973 19.332 62.5571 21.6919 62.5571 24.5928C62.5571 27.4937 60.1973 29.8535 57.2964 29.8535C54.3955 29.8535 52.0356 27.4937 52.0356 24.5928C52.0356 21.6919 54.3955 19.332 57.2964 19.332Z" fill="#6410EB"/>
<path d="M57.2964 48.1401C61.2998 48.1401 64.5571 44.8833 64.5571 40.8799C64.5571 36.8765 61.2998 33.6191 57.2964 33.6191C53.293 33.6191 50.0356 36.8765 50.0356 40.8799C50.0356 44.8833 53.293 48.1401 57.2964 48.1401ZM57.2964 35.6191C60.1973 35.6191 62.5571 37.979 62.5571 40.8799C62.5571 43.7803 60.1973 46.1401 57.2964 46.1401C54.3955 46.1401 52.0356 43.7803 52.0356 40.8799C52.0356 37.979 54.3955 35.6191 57.2964 35.6191Z" fill="#6410EB"/>
<path d="M64.5571 57.4717C64.5571 53.4683 61.2998 50.2109 57.2964 50.2109C53.293 50.2109 50.0356 53.4683 50.0356 57.4717C50.0356 61.4751 53.293 64.7324 57.2964 64.7324C61.2998 64.7324 64.5571 61.4751 64.5571 57.4717ZM52.0356 57.4717C52.0356 54.5708 54.3955 52.2109 57.2964 52.2109C60.1973 52.2109 62.5571 54.5708 62.5571 57.4717C62.5571 60.3726 60.1973 62.7324 57.2964 62.7324C54.3955 62.7324 52.0356 60.3726 52.0356 57.4717Z" fill="#6410EB"/>
<path d="M40.8516 17.332C36.8481 17.332 33.5913 20.5894 33.5913 24.5928C33.5913 28.5962 36.8481 31.8535 40.8516 31.8535C44.855 31.8535 48.1123 28.5962 48.1123 24.5928C48.1123 20.5894 44.855 17.332 40.8516 17.332ZM40.8516 29.8535C37.9512 29.8535 35.5913 27.4937 35.5913 24.5928C35.5913 21.6919 37.9512 19.332 40.8516 19.332C43.7524 19.332 46.1123 21.6919 46.1123 24.5928C46.1123 27.4937 43.7524 29.8535 40.8516 29.8535Z" fill="#6410EB"/>
<path d="M40.8516 48.1401C44.855 48.1401 48.1123 44.8833 48.1123 40.8799C48.1123 36.8765 44.855 33.6191 40.8516 33.6191C36.8481 33.6191 33.5913 36.8765 33.5913 40.8799C33.5913 44.8833 36.8481 48.1401 40.8516 48.1401ZM40.8516 35.6191C43.7524 35.6191 46.1123 37.979 46.1123 40.8799C46.1123 43.7803 43.7524 46.1401 40.8516 46.1401C37.9512 46.1401 35.5913 43.7803 35.5913 40.8799C35.5913 37.979 37.9512 35.6191 40.8516 35.6191Z" fill="#6410EB"/>
<path d="M48.1123 57.4717C48.1123 53.4683 44.855 50.2109 40.8516 50.2109C36.8481 50.2109 33.5913 53.4683 33.5913 57.4717C33.5913 61.4751 36.8481 64.7324 40.8516 64.7324C44.855 64.7324 48.1123 61.4751 48.1123 57.4717ZM40.8516 62.7324C37.9512 62.7324 35.5913 60.3726 35.5913 57.4717C35.5913 54.5708 37.9512 52.2109 40.8516 52.2109C43.7524 52.2109 46.1123 54.5708 46.1123 57.4717C46.1123 60.3726 43.7524 62.7324 40.8516 62.7324Z" fill="#6410EB"/>
<path d="M24.4072 31.8535C28.4106 31.8535 31.6675 28.5962 31.6675 24.5928C31.6675 20.5894 28.4106 17.332 24.4072 17.332C20.4038 17.332 17.1465 20.5894 17.1465 24.5928C17.1465 28.5962 20.4038 31.8535 24.4072 31.8535ZM24.4072 19.332C27.3076 19.332 29.6675 21.6919 29.6675 24.5928C29.6675 27.4937 27.3076 29.8535 24.4072 29.8535C21.5063 29.8535 19.1465 27.4937 19.1465 24.5928C19.1465 21.6919 21.5063 19.332 24.4072 19.332Z" fill="#6410EB"/>
<path d="M24.4072 48.1401C28.4106 48.1401 31.6675 44.8833 31.6675 40.8799C31.6675 36.8765 28.4106 33.6191 24.4072 33.6191C20.4038 33.6191 17.1465 36.8765 17.1465 40.8799C17.1465 44.8833 20.4038 48.1401 24.4072 48.1401ZM24.4072 35.6191C27.3076 35.6191 29.6675 37.979 29.6675 40.8799C29.6675 43.7803 27.3076 46.1401 24.4072 46.1401C21.5063 46.1401 19.1465 43.7803 19.1465 40.8799C19.1465 37.979 21.5063 35.6191 24.4072 35.6191Z" fill="#6410EB"/>
<path d="M31.6675 57.4717C31.6675 53.4683 28.4106 50.2109 24.4072 50.2109C20.4038 50.2109 17.1465 53.4683 17.1465 57.4717C17.1465 61.4751 20.4038 64.7324 24.4072 64.7324C28.4106 64.7324 31.6675 61.4751 31.6675 57.4717ZM24.4072 62.7324C21.5063 62.7324 19.1465 60.3726 19.1465 57.4717C19.1465 54.5708 21.5063 52.2109 24.4072 52.2109C27.3076 52.2109 29.6675 54.5708 29.6675 57.4717C29.6675 60.3726 27.3076 62.7324 24.4072 62.7324Z" fill="#6410EB"/>
<path d="M8.16113 48.1401C12.1646 48.1401 15.4214 44.8833 15.4214 40.8799C15.4214 36.8765 12.1646 33.6191 8.16113 33.6191C4.15771 33.6191 0.900391 36.8765 0.900391 40.8799C0.900391 44.8833 4.15771 48.1401 8.16113 48.1401ZM8.16113 35.6191C11.0615 35.6191 13.4214 37.979 13.4214 40.8799C13.4214 43.7803 11.0615 46.1401 8.16113 46.1401C5.26025 46.1401 2.90039 43.7803 2.90039 40.8799C2.90039 37.979 5.26025 35.6191 8.16113 35.6191Z" fill="#6410EB"/>
<path d="M8.16113 64.7324C12.1646 64.7324 15.4214 61.4751 15.4214 57.4717C15.4214 53.4683 12.1646 50.2109 8.16113 50.2109C4.15771 50.2109 0.900391 53.4683 0.900391 57.4717C0.900391 61.4751 4.15771 64.7324 8.16113 64.7324ZM8.16113 52.2109C11.0615 52.2109 13.4214 54.5708 13.4214 57.4717C13.4214 60.3726 11.0615 62.7324 8.16113 62.7324C5.26025 62.7324 2.90039 60.3726 2.90039 57.4717C2.90039 54.5708 5.26025 52.2109 8.16113 52.2109Z" fill="#6410EB"/>
<path d="M8.16113 31.8535C12.1646 31.8535 15.4214 28.5962 15.4214 24.5928C15.4214 20.5894 12.1646 17.332 8.16113 17.332C4.15771 17.332 0.900391 20.5894 0.900391 24.5928C0.900391 28.5962 4.15771 31.8535 8.16113 31.8535ZM8.16113 19.332C11.0615 19.332 13.4214 21.6919 13.4214 24.5928C13.4214 27.4937 11.0615 29.8535 8.16113 29.8535C5.26025 29.8535 2.90039 27.4937 2.90039 24.5928C2.90039 21.6919 5.26025 19.332 8.16113 19.332Z" fill="#6410EB"/>
<path d="M57.2964 15.5024C61.2998 15.5024 64.5571 12.2451 64.5571 8.2417C64.5571 4.23828 61.2998 0.980957 57.2964 0.980957C53.293 0.980957 50.0356 4.23828 50.0356 8.2417C50.0356 12.2451 53.293 15.5024 57.2964 15.5024ZM57.2964 2.98096C60.1973 2.98096 62.5571 5.34082 62.5571 8.2417C62.5571 11.1426 60.1973 13.5024 57.2964 13.5024C54.3955 13.5024 52.0356 11.1426 52.0356 8.2417C52.0356 5.34082 54.3955 2.98096 57.2964 2.98096Z" fill="#6410EB"/>
<path d="M73.8394 17.332C69.8359 17.332 66.5786 20.5894 66.5786 24.5928C66.5786 28.5962 69.8359 31.8535 73.8394 31.8535C77.8428 31.8535 81.1001 28.5962 81.1001 24.5928C81.1001 20.5894 77.8428 17.332 73.8394 17.332ZM73.8394 29.8535C70.9385 29.8535 68.5786 27.4937 68.5786 24.5928C68.5786 21.6919 70.9385 19.332 73.8394 19.332C76.7402 19.332 79.1001 21.6919 79.1001 24.5928C79.1001 27.4937 76.7402 29.8535 73.8394 29.8535Z" fill="#6410EB"/>
<path d="M73.8394 33.6191C69.8359 33.6191 66.5786 36.8765 66.5786 40.8799C66.5786 44.8833 69.8359 48.1401 73.8394 48.1401C77.8428 48.1401 81.1001 44.8833 81.1001 40.8799C81.1001 36.8765 77.8428 33.6191 73.8394 33.6191ZM73.8394 46.1401C70.9385 46.1401 68.5786 43.7803 68.5786 40.8799C68.5786 37.979 70.9385 35.6191 73.8394 35.6191C76.7402 35.6191 79.1001 37.979 79.1001 40.8799C79.1001 43.7803 76.7402 46.1401 73.8394 46.1401Z" fill="#6410EB"/>
<path d="M73.8394 50.2109C69.8359 50.2109 66.5786 53.4683 66.5786 57.4717C66.5786 61.4751 69.8359 64.7324 73.8394 64.7324C77.8428 64.7324 81.1001 61.4751 81.1001 57.4717C81.1001 53.4683 77.8428 50.2109 73.8394 50.2109ZM73.8394 62.7324C70.9385 62.7324 68.5786 60.3726 68.5786 57.4717C68.5786 54.5708 70.9385 52.2109 73.8394 52.2109C76.7402 52.2109 79.1001 54.5708 79.1001 57.4717C79.1001 60.3726 76.7402 62.7324 73.8394 62.7324Z" fill="#6410EB"/>
<path d="M73.8394 81.019C77.8428 81.019 81.1001 77.7617 81.1001 73.7583C81.1001 69.7549 77.8428 66.4976 73.8394 66.4976C69.8359 66.4976 66.5786 69.7549 66.5786 73.7583C66.5786 77.7617 69.8359 81.019 73.8394 81.019ZM73.8394 68.4976C76.7402 68.4976 79.1001 70.8574 79.1001 73.7583C79.1001 76.6592 76.7402 79.019 73.8394 79.019C70.9385 79.019 68.5786 76.6592 68.5786 73.7583C68.5786 70.8574 70.9385 68.4976 73.8394 68.4976Z" fill="#6410EB"/>
<path d="M66.5786 8.2417C66.5786 12.2451 69.8359 15.5024 73.8394 15.5024C77.8428 15.5024 81.1001 12.2451 81.1001 8.2417C81.1001 4.23828 77.8428 0.980957 73.8394 0.980957C69.8359 0.980957 66.5786 4.23828 66.5786 8.2417ZM73.8394 2.98096C76.7402 2.98096 79.1001 5.34082 79.1001 8.2417C79.1001 11.1426 76.7402 13.5024 73.8394 13.5024C70.9385 13.5024 68.5786 11.1426 68.5786 8.2417C68.5786 5.34082 70.9385 2.98096 73.8394 2.98096Z" fill="#6410EB"/>
<path d="M40.8516 0.980957C36.8481 0.980957 33.5913 4.23828 33.5913 8.2417C33.5913 12.2451 36.8481 15.5024 40.8516 15.5024C44.855 15.5024 48.1123 12.2451 48.1123 8.2417C48.1123 4.23828 44.855 0.980957 40.8516 0.980957ZM40.8516 13.5024C37.9512 13.5024 35.5913 11.1426 35.5913 8.2417C35.5913 5.34082 37.9512 2.98096 40.8516 2.98096C43.7524 2.98096 46.1123 5.34082 46.1123 8.2417C46.1123 11.1426 43.7524 13.5024 40.8516 13.5024Z" fill="#6410EB"/>
<path d="M24.4072 15.5024C28.4106 15.5024 31.6675 12.2451 31.6675 8.2417C31.6675 4.23828 28.4106 0.980957 24.4072 0.980957C20.4038 0.980957 17.1465 4.23828 17.1465 8.2417C17.1465 12.2451 20.4038 15.5024 24.4072 15.5024ZM24.4072 2.98096C27.3076 2.98096 29.6675 5.34082 29.6675 8.2417C29.6675 11.1426 27.3076 13.5024 24.4072 13.5024C21.5063 13.5024 19.1465 11.1426 19.1465 8.2417C19.1465 5.34082 21.5063 2.98096 24.4072 2.98096Z" fill="#6410EB"/>
<path d="M8.16113 15.5024C12.1646 15.5024 15.4214 12.2451 15.4214 8.2417C15.4214 4.23828 12.1646 0.980957 8.16113 0.980957C4.15771 0.980957 0.900391 4.23828 0.900391 8.2417C0.900391 12.2451 4.15771 15.5024 8.16113 15.5024ZM8.16113 2.98096C11.0615 2.98096 13.4214 5.34082 13.4214 8.2417C13.4214 11.1426 11.0615 13.5024 8.16113 13.5024C5.26025 13.5024 2.90039 11.1426 2.90039 8.2417C2.90039 5.34082 5.26025 2.98096 8.16113 2.98096Z" fill="#6410EB"/>
</svg>
